HIERARCHY
ROOT Pelvis
{
	OFFSET 0.000000 0.000000 0.000000
	CHANNELS 6 Xposition Yposition Zposition Xrotation Yrotation Zrotation
	JOINT LeftUpLeg_virtual
	{
		OFFSET 0.000000 0.000000 0.000000
		CHANNELS 3 Xrotation Yrotation Zrotation
		JOINT LeftUpLeg
		{
			OFFSET 18.735201 -5.666702 -4.541200
			CHANNELS 3 Xrotation Yrotation Zrotation
			JOINT LeftLeg
			{
				OFFSET -0.021200 -31.938179 0.493100
				CHANNELS 3 Xrotation Yrotation Zrotation
				JOINT LeftFoot
				{
					OFFSET 0.021200 -31.938179 -4.336299
					CHANNELS 3 Xrotation Yrotation Zrotation
					JOINT LeftToeBase
					{
						OFFSET 0.943001 -26.722000 15.023500
						CHANNELS 3 Xrotation Yrotation Zrotation
						End Site
						{
							OFFSET 0 0 0
						}
					}
				}
			}
		}
	}
	JOINT RightUpLeg_virtual
	{
		OFFSET 0.000000 0.000000 0.000000
		CHANNELS 3 Xrotation Yrotation Zrotation
		JOINT RightUpLeg
		{
			OFFSET -18.735201 -5.666702 -4.541200
			CHANNELS 3 Xrotation Yrotation Zrotation
			JOINT RightLeg
			{
				OFFSET 0.018946 -31.938133 0.493100
				CHANNELS 3 Xrotation Yrotation Zrotation
				JOINT RightFoot
				{
					OFFSET -0.018946 -31.938126 -4.336299
					CHANNELS 3 Xrotation Yrotation Zrotation
					JOINT RightToeBase
					{
						OFFSET -0.943001 -26.722004 15.023500
						CHANNELS 3 Xrotation Yrotation Zrotation
						End Site
						{
							OFFSET 0 0 0
						}
					}
				}
			}
		}
	}
	JOINT Hips_virtual
	{
		OFFSET 0.000000 0.000000 0.000000
		CHANNELS 3 Xrotation Yrotation Zrotation
		JOINT Hips
		{
			OFFSET -0.000000 -0.000000 -0.000000
			CHANNELS 3 Xrotation Yrotation Zrotation
			JOINT Spine
			{
				OFFSET 0.000000 10.199997 -0.299500
				CHANNELS 3 Xrotation Yrotation Zrotation
				JOINT Spine1
				{
					OFFSET 0.000000 11.900002 -1.516600
					CHANNELS 3 Xrotation Yrotation Zrotation
					JOINT Spine2
					{
						OFFSET 0.000000 13.600006 -2.842500
						CHANNELS 3 Xrotation Yrotation Zrotation
						JOINT Neck_virtual
						{
							OFFSET 0.000000 0.000000 0.000000
							CHANNELS 3 Xrotation Yrotation Zrotation
							JOINT Neck
							{
								OFFSET 0.000000 9.624100 -2.890100
								CHANNELS 3 Xrotation Yrotation Zrotation
								JOINT Head
								{
									OFFSET 0.000000 14.068802 -1.351900
									CHANNELS 3 Xrotation Yrotation Zrotation
									End Site
									{
										OFFSET 0 0 0
									}
								}
							}
						}
						JOINT LeftShoulder_virtual
						{
							OFFSET 0.000000 0.000000 0.000000
							CHANNELS 3 Xrotation Yrotation Zrotation
							JOINT LeftShoulder
							{
								OFFSET 15.263000 10.923401 -0.547700
								CHANNELS 3 Xrotation Yrotation Zrotation
								JOINT LeftArm
								{
									OFFSET 25.438599 -2.830597 -13.032500
									CHANNELS 3 Xrotation Yrotation Zrotation
									JOINT LeftForeArm
									{
										OFFSET 29.960503 0.000000 0.000000
										CHANNELS 3 Xrotation Yrotation Zrotation
										JOINT LeftHand
										{
											OFFSET 27.849251 0.000000 0.000000
											CHANNELS 3 Xrotation Yrotation Zrotation
											End Site
											{
												OFFSET 0 0 0
											}
										}
									}
								}
							}
						}
						JOINT RightShoulder_virtual
						{
							OFFSET 0.000000 0.000000 0.000000
							CHANNELS 3 Xrotation Yrotation Zrotation
							JOINT RightShoulder
							{
								OFFSET -15.263000 10.923401 -0.547700
								CHANNELS 3 Xrotation Yrotation Zrotation
								JOINT RightArm
								{
									OFFSET -25.438599 -2.830597 -13.032500
									CHANNELS 3 Xrotation Yrotation Zrotation
									JOINT RightForeArm
									{
										OFFSET -29.960503 0.000000 0.000000
										CHANNELS 3 Xrotation Yrotation Zrotation
										JOINT RightHand
										{
											OFFSET -27.849251 0.000000 0.000000
											CHANNELS 3 Xrotation Yrotation Zrotation
											End Site
											{
												OFFSET 0 0 0
											}
										}
									}
								}
							}
						}
					}
				}
			}
		}
	}
}
MOTION
Frames: 9
Frame Time: 0.03333333
-12.587071 19.771358 -72.602768 0.000000 0.000000 0.000000 -55.029413 21.407269 13.023993 -96.636542 2.091726 21.953500 79.786069 3.940956 -4.163359 23.765092 4.901652 -7.927690 0.000000 0.000000 0.000000 -76.727838 18.420598 -8.348312 -105.462028 16.293324 -18.187455 105.404306 4.098448 1.609836 34.365359 4.938996 19.122959 0.000000 0.000000 0.000000 -23.904872 3.218178 -0.038460 -79.334860 38.221254 16.276583 54.120759 7.094458 -3.502712 25.754676 4.991856 0.285872 0.000000 0.000000 0.000000 17.094227 1.810289 -2.641815 5.641080 0.260462 -0.622143 0.000000 0.000000 0.000000 20.863783 3.155552 0.455503 5.412944 -3.009677 -6.497463 -30.680404 -26.168427 -52.481978 -11.937373 -81.477395 -10.195667 0.000000 0.000000 0.000000 20.229308 4.499305 0.660275 4.634417 11.056612 6.780866 -13.505680 1.094269 40.983150 -4.488053 44.184781 5.433900 0.000000 0.000000 0.000000 
-12.565214 19.764494 -74.535088 0.000000 0.000000 0.000000 -54.671365 19.048336 12.266315 -96.562312 1.468727 21.905793 78.440365 3.971614 -3.371055 22.543716 4.595184 -6.745809 0.000000 0.000000 0.000000 -75.545608 20.208260 -7.505523 -104.644010 16.680288 -18.203135 103.876727 4.213530 1.547628 33.302554 4.974755 19.171146 0.000000 0.000000 0.000000 -25.020998 3.281911 0.268824 -84.323466 37.405968 19.202406 54.021038 7.193805 -3.308701 25.764863 4.973187 0.370815 0.000000 0.000000 0.000000 17.704993 1.704030 -2.548280 5.888845 0.270397 -0.599637 0.000000 0.000000 0.000000 21.301897 3.120306 0.603670 5.776460 -2.512897 -6.239155 -28.722421 -25.631152 -51.023231 -7.776460 -80.409515 -5.950059 0.000000 0.000000 0.000000 20.750890 4.540180 0.762164 5.012611 11.063569 7.558630 -11.183592 1.089550 42.033640 -3.723049 45.235223 5.318327 0.000000 0.000000 0.000000 
-12.435549 19.825090 -76.439262 0.000000 0.000000 0.000000 -54.340247 17.082754 11.649998 -96.459394 0.959271 21.884684 77.264029 3.902040 -2.597154 21.446121 4.177419 -5.677646 0.000000 0.000000 0.000000 -74.551030 22.260811 -6.556996 -103.892928 17.141461 -18.207589 102.707556 4.142967 1.303223 32.577694 4.947020 18.739246 0.000000 0.000000 0.000000 -26.079508 3.258560 0.575617 -89.019228 36.674940 22.100716 53.685219 7.183829 -3.049466 25.641961 4.885133 0.478165 0.000000 0.000000 0.000000 18.175331 1.574567 -2.439283 6.078397 0.282597 -0.577517 0.000000 0.000000 0.000000 21.556968 3.016093 0.757065 6.047710 -2.059520 -6.052684 -26.677597 -24.913018 -49.468820 -4.402320 -79.051209 -2.495719 0.000000 0.000000 0.000000 21.088395 4.511100 0.856371 5.303723 10.987396 8.207215 -8.697926 1.365226 42.868897 -2.792331 46.508288 5.014514 0.000000 0.000000 0.000000 
-12.233744 19.961287 -78.303596 0.000000 0.000000 0.000000 -54.013512 15.547621 11.199788 -96.314383 0.559922 21.901633 76.241379 3.733955 -1.871263 20.470379 3.666490 -4.768801 0.000000 0.000000 0.000000 -73.797277 24.451611 -5.538123 -103.248042 17.644354 -18.195288 101.947383 3.930589 0.884979 32.205086 4.901050 17.892666 0.000000 0.000000 0.000000 -27.067736 3.101537 0.853871 -93.393138 36.048161 24.891658 53.066622 7.033362 -2.731511 25.359552 4.715212 0.599469 0.000000 0.000000 0.000000 18.483040 1.411934 -2.320544 6.198652 0.292255 -0.558798 0.000000 0.000000 0.000000 21.601348 2.829979 0.906709 6.204019 -1.693812 -5.966151 -24.573450 -24.046531 -47.880043 -1.809646 -77.443260 0.157372 0.000000 0.000000 0.000000 21.212197 4.400289 0.946078 5.487159 10.777139 8.724750 -6.052001 1.841070 43.469226 -1.695382 47.949021 4.517015 0.000000 0.000000 0.000000 
-12.001418 20.179861 -80.123344 0.000000 0.000000 0.000000 -53.676882 14.450020 10.926884 -96.121614 0.262652 21.963062 75.333804 3.490873 -1.210887 19.594769 3.100066 -4.026269 0.000000 0.000000 0.000000 -73.323959 26.669551 -4.455652 -102.742417 18.154808 -18.152819 101.603346 3.620778 0.316962 32.171379 4.868546 16.715551 0.000000 0.000000 0.000000 -27.974257 2.776742 1.078426 -97.426481 35.530490 27.503058 52.137194 6.712293 -2.365878 24.901932 4.452961 0.724583 0.000000 0.000000 0.000000 18.613152 1.206543 -2.197400 6.241609 0.294248 -0.545615 0.000000 0.000000 0.000000 21.419661 2.553881 1.043126 6.231678 -1.450479 -5.998015 -22.430512 -23.070154 -46.317050 0.122814 -75.631982 2.114044 0.000000 0.000000 0.000000 21.104467 4.198461 1.031966 5.551820 10.386680 9.105475 -3.254109 2.428520 43.812556 -0.434179 49.496441 3.820579 0.000000 0.000000 0.000000 
-11.781070 20.483789 -81.894875 0.000000 0.000000 0.000000 -53.325708 13.769344 10.825782 -95.883411 0.057234 22.068985 74.491566 3.208931 -0.623569 18.787287 2.524951 -3.429811 0.000000 0.000000 0.000000 -73.156681 28.824843 -3.296926 -102.400641 18.641290 -18.062531 101.644662 3.254376 -0.366187 32.441408 4.868566 15.301413 0.000000 0.000000 0.000000 -28.794814 2.265300 1.230698 -101.108813 35.102179 29.872543 50.893126 6.194269 -1.970218 24.267281 4.091203 0.841430 0.000000 0.000000 0.000000 18.559465 0.951029 -2.074703 6.203231 0.284161 -0.539083 0.000000 0.000000 0.000000 21.011105 2.186492 1.157225 6.127748 -1.348067 -6.153799 -20.258169 -22.025287 -44.830681 1.552560 -73.663604 3.515738 0.000000 0.000000 0.000000 20.761941 3.900646 1.111732 5.497745 9.783161 9.340400 -0.324197 3.041968 43.880219 0.984171 51.096567 2.923242 0.000000 0.000000 0.000000 
-11.611633 20.870396 -83.611298 0.000000 0.000000 0.000000 -52.963032 13.460469 10.875176 -95.608052 -0.067863 22.213496 73.664902 2.927067 -0.109629 18.014448 1.986791 -2.945050 0.000000 0.000000 0.000000 -73.305319 30.846968 -2.043876 -102.236553 19.077470 -17.907745 102.013813 2.865916 -1.124611 32.965082 4.909322 13.744438 0.000000 0.000000 0.000000 -29.535534 1.564400 1.301129 -104.433551 34.716868 31.949016 49.357426 5.460430 -1.569267 23.469035 3.627372 0.936534 0.000000 0.000000 0.000000 18.324848 0.641655 -1.956784 6.083795 0.259033 -0.539291 0.000000 0.000000 0.000000 20.389771 1.734187 1.241404 5.900346 -1.386155 -6.424276 -18.055238 -20.952123 -43.454613 2.630398 -71.579652 4.500071 0.000000 0.000000 0.000000 20.197530 3.507640 1.180365 5.336415 8.953339 9.419890 2.704175 3.608362 43.661769 2.547379 52.709646 1.827794 0.000000 0.000000 0.000000 
-11.525124 21.330338 -85.261543 0.000000 0.000000 0.000000 -52.595284 13.457083 11.042834 -95.306315 -0.126370 22.387255 72.811804 2.679212 0.335671 17.247624 1.522226 -2.534057 0.000000 0.000000 0.000000 -73.761774 32.678965 -0.686469 -102.252187 19.442887 -17.677293 102.639001 2.481944 -1.917833 33.683949 4.990053 12.132189 0.000000 0.000000 0.000000 -30.211907 0.687083 1.289834 -107.393612 34.309416 33.696690 47.578582 4.503849 -1.192853 22.534939 3.064759 0.996579 0.000000 0.000000 0.000000 17.920226 0.279060 -1.847485 5.887626 0.217741 -0.545444 0.000000 0.000000 0.000000 19.583395 1.210744 1.290651 5.567700 -1.546786 -6.785699 -15.815271 -19.885732 -42.200457 3.482703 -69.415117 5.185883 0.000000 0.000000 0.000000 19.439895 3.026811 1.231272 5.089374 7.906485 9.337888 5.787246 4.072479 43.157483 4.240464 54.309286 0.541287 0.000000 0.000000 0.000000 
-11.544286 21.847507 -86.832939 0.000000 0.000000 0.000000 -52.227899 13.675253 11.292950 -94.987878 -0.136139 22.581039 71.902255 2.490120 0.720876 16.466215 1.154985 -2.161290 0.000000 0.000000 0.000000 -74.498608 34.272837 0.768563 -102.438228 19.722263 -17.367901 103.444820 2.120290 -2.708265 34.536787 5.102789 10.539959 0.000000 0.000000 0.000000 -30.843956 -0.339319 1.205350 -109.979508 33.810891 35.101090 45.625247 3.333622 -0.871554 21.503843 2.413360 1.010661 0.000000 0.000000 0.000000 17.362665 -0.131569 -1.750307 5.622349 0.161066 -0.556167 0.000000 0.000000 0.000000 18.630529 0.635933 1.303334 5.156155 -1.799242 -7.202474 -13.534143 -18.853395 -41.057695 4.206417 -67.198755 5.670227 0.000000 0.000000 0.000000 18.530785 2.472031 1.258016 4.785272 6.673422 9.096599 8.877750 4.396501 42.379090 6.048444 55.874345 -0.925708 0.000000 0.000000 0.000000 
